Coordinates
version=1
nRows=10
nColumns=22
inDegrees=yes

Units are S.I. units (second, meters, Newtons, ...)
If the header above contains a line with 'inDegrees', this indicates whether rotational values are in degrees (yes) or radians (no).

endheader
time	pelvis_tilt	pelvis_list	pelvis_rotation	pelvis_tx	pelvis_ty	pelvis_tz	hip_flexion_r	hip_adduction_r	hip_rotation_r	knee_angle_r	ankle_angle_r	subtalar_angle_r	hip_flexion_l	hip_adduction_l	hip_rotation_l	knee_angle_l	ankle_angle_l	subtalar_angle_l	lumbar_extension	lumbar_bending	lumbar_rotation
      2.39000000	    -11.16207621	      3.90681972	    -37.38148446	     -0.31921355	      0.86587193	      0.07897317	      3.04233588	     -2.41637845	      6.18137112	    -61.20651173	     -6.23751342	      7.58843889	     33.80859881	     -7.64662919	     -3.29384318	    -36.06021881	     14.83535157	      7.60326733	     -9.43786196	      0.02246582	     18.14340584
      2.40000000	    -10.68837923	      3.57769712	    -36.79323071	     -0.29957658	      0.86147994	      0.08799121	      5.22394675	     -2.57932039	      5.36491387	    -67.44562056	     -4.80631671	      6.95502980	     32.48386405	     -6.95046705	     -2.89604403	    -37.14855980	     16.67299997	      6.57331817	     -9.83358591	     -0.08079059	     17.02994077
      2.41000000	    -10.20823574	      3.34882645	    -36.26148781	     -0.28045945	      0.85626452	      0.09693184	      7.62852232	     -2.81731862	      4.75298130	    -73.58050844	     -3.38220474	      6.46964105	     31.18947911	     -6.23788503	     -2.50957821	    -38.46298903	     18.91608123	      5.49457712	    -10.21341954	     -0.28690290	     15.91477680
      2.42000000	     -9.74964423	      3.21787614	    -35.80061079	     -0.26186854	      0.85044662	      0.10583165	     10.27709511	     -3.11350263	      4.30665739	    -79.50346799	     -1.91142953	      6.02448829	     29.93920465	     -5.53757076	     -2.17675364	    -39.88522754	     21.41975876	      4.39540838	    -10.55816579	     -0.57804192	     14.85144873
      2.43000000	     -9.35942541	      3.24036110	    -35.42616952	     -0.24379317	      0.84423998	      0.11472615	     13.26534804	     -3.47379167	      4.02962605	    -85.12865436	     -0.44884843	      5.59394616	     28.77093264	     -4.83694797	     -1.94773223	    -41.26770436	     24.02153663	      3.42500550	    -10.78785759	     -0.97191405	     13.81071143
      2.44000000	     -9.06517203	      3.41346955	    -35.13093341	     -0.22615266	      0.83793873	      0.12365779	     16.61626667	     -3.87916296	      3.87757666	    -90.34455038	      0.99363023	      5.12479502	     27.68579210	     -4.14418487	     -1.81915847	    -42.51577798	     26.56291036	      2.62054680	    -10.87382072	     -1.44753013	     12.81937748
      2.45000000	     -8.88336921	      3.71224528	    -34.89050686	     -0.20879065	      0.83185690	      0.13267551	     20.30836784	     -4.28850023	      3.80515021	    -95.02633544	      2.39882105	      4.57850424	     26.65166459	     -3.47164755	     -1.76436171	    -43.53894512	     28.92517368	      1.98609437	    -10.80473414	     -1.96402874	     11.86023786
      2.46000000	     -8.81146597	      4.08013550	    -34.67922922	     -0.19151104	      0.82631952	      0.14185473	     24.26343732	     -4.64539927	      3.75523687	    -99.04643974	      3.74049286	      3.94139760	     25.59428976	     -2.84933830	     -1.74593148	    -44.25970578	     31.01839497	      1.53376094	    -10.60234459	     -2.46013237	     10.89982825
      2.47000000	     -8.81908620	      4.44192669	    -34.45742898	     -0.17408164	      0.82161764	      0.15123040	     28.33993520	     -4.92096197	      3.64138585	   -102.28513552	      4.98571604	      3.17939165	     24.41952723	     -2.29774744	     -1.70403230	    -44.64080757	     32.79239158	      1.24706465	    -10.32426601	     -2.87126470	      9.92939724
      2.48000000	     -8.87344403	      4.72689247	    -34.20825283	     -0.15628112	      0.81800035	      0.16087734	     32.37604653	     -5.09508809	      3.39792069	   -104.63657354	      6.10710742	      2.30000841	     23.01929545	     -1.84412908	     -1.59183948	    -44.63080348	     34.19890509	      1.12261457	    -10.02299042	     -3.13829478	      8.91246775
